<svg width="42" height="32" viewBox="0 0 42 32" fill="none" xmlns="http://www.w3.org/2000/svg">
<path fill-rule="evenodd" clip-rule="evenodd" d="M6.08732 0.5C2.72539 0.5 0 3.22539 0 6.58732V25.9127C0 29.2746 2.72538 32 6.08732 32H35.9127C39.2746 32 42 29.2746 42 25.9127V9.63098C42 8.59513 41.8275 7.59957 41.5097 6.67144C41.1917 5.74275 40.0263 5.58889 39.3236 6.27431L19.7426 25.3737C19.3608 25.7461 18.8462 25.9506 18.313 25.9417C17.7797 25.9329 17.2721 25.7115 16.9029 25.3267L7.55678 15.5856C6.79205 14.7886 6.81824 13.5225 7.61528 12.7578C8.41232 11.9931 9.67837 12.0193 10.4431 12.8163L17.3308 19.995C17.9161 20.6051 18.8864 20.6211 19.4916 20.0308L36.5962 3.3469C37.2885 2.67164 37.1806 1.52181 36.2838 1.15995C35.2289 0.734314 34.0763 0.5 32.869 0.5H6.08732Z" fill="url(#paint0_linear_2102_942)" style=""/>
<defs>
<linearGradient id="paint0_linear_2102_942" x1="-3.375" y1="0.5" x2="46.0737" y2="30.7112" gradientUnits="userSpaceOnUse">
<stop stop-color="#93BEFF" style="stop-color:#93BEFF;stop-color:color(display-p3 0.5767 0.7460 1.0000);stop-opacity:1;"/>
<stop offset="1" stop-color="#1A24FF" style="stop-color:#1A24FF;stop-color:color(display-p3 0.1017 0.1409 1.0000);stop-opacity:1;"/>
</linearGradient>
</defs>
</svg>
